<svg id="Capa_1" enable-background="new 0 0 512 512" height="512" viewBox="0 0 512 512" width="512" xmlns="http://www.w3.org/2000/svg"><path d="m312.113 152.306h-224.45c-4.142 0-7.5 3.358-7.5 7.5s3.358 7.5 7.5 7.5h216.95v145.323h-257.549v-145.323h8.532c4.142 0 7.5-3.358 7.5-7.5s-3.358-7.5-7.5-7.5h-16.032c-4.142 0-7.5 3.358-7.5 7.5v160.323c0 4.142 3.358 7.5 7.5 7.5h272.548c4.142 0 7.5-3.358 7.5-7.5v-160.323c.001-4.142-3.357-7.5-7.499-7.5z"/><path d="m496.484 392.79h-.516v-297.113c0-12.976-10.557-23.532-23.532-23.532h-80.161c-12.976 0-23.533 10.556-23.533 23.532v208.419c0 4.142 3.358 7.5 7.5 7.5s7.5-3.358 7.5-7.5v-208.419c0-4.705 3.828-8.532 8.533-8.532h32.581v58.378c-9.308 3.139-16.032 11.946-16.032 22.3s6.724 19.16 16.032 22.3v154.572h-41.113v-8.531c0-4.142-3.358-7.5-7.5-7.5s-7.5 3.358-7.5 7.5v56.628h-138.454l-5.516-33.097h103.372c12.976 0 23.532-10.557 23.532-23.532v-192.389c0-12.976-10.557-23.532-23.532-23.532h-304.613c-12.975 0-23.532 10.556-23.532 23.532v192.387c0 12.976 10.557 23.532 23.532 23.532h103.373l-5.516 33.097h-105.873c-8.556 0-15.516 6.961-15.516 15.516v16.032c0 8.556 6.96 15.516 15.516 15.516h480.968c8.556 0 15.516-6.96 15.516-15.516v-16.032c0-8.555-6.96-15.516-15.516-15.516zm-64.129-233.5c4.705 0 8.532 3.828 8.532 8.532s-3.828 8.532-8.532 8.532-8.532-3.828-8.532-8.532 3.827-8.532 8.532-8.532zm7.5 30.832c9.308-3.139 16.032-11.946 16.032-22.3s-6.724-19.16-16.032-22.3v-58.377h32.581c4.705 0 8.532 3.828 8.532 8.532v249.016h-41.113zm-56.113 169.571h97.226v33.097h-97.226zm-368.742-23.532v-192.387c0-4.705 3.828-8.532 8.532-8.532h304.613c4.705 0 8.532 3.828 8.532 8.532v192.387c0 4.705-3.828 8.532-8.532 8.532h-304.613c-4.704 0-8.532-3.827-8.532-8.532zm127.112 23.532h67.454l5.516 33.097h-78.487zm354.888 64.646c0 .285-.231.516-.516.516h-480.968c-.285 0-.516-.231-.516-.516v-16.032c0-.285.231-.516.516-.516h480.968c.285 0 .516.231.516.516z"/></svg>